<?xml version="1.0" encoding="UTF-8" standalone="no"?>
<svg xmlns="http://www.w3.org/2000/svg" contentScriptType="application/ecmascript" contentStyleType="text/css" height="1151px" preserveAspectRatio="none" style="width:1643px;height:1151px;" version="1.1" viewBox="0 0 1643 1151" width="1643px" zoomAndPan="magnify"><defs><filter height="300%" id="fci1qdv" width="300%" x="-1" y="-1"><feGaussianBlur result="blurOut" stdDeviation="2.0"/><feColorMatrix in="blurOut" result="blurOut2" type="matrix" values="0 0 0 0 0 0 0 0 0 0 0 0 0 0 0 0 0 0 .4 0"/><feOffset dx="4.0" dy="4.0" in="blurOut2" result="blurOut3"/><feBlend in="SourceGraphic" in2="blurOut3" mode="normal"/></filter></defs><g><!--class Supply--><rect fill="#FEFECE" filter="url(#fci1qdv)" height="75.6719" style="stroke: #A80036; stroke-width: 1.5;" width="69" x="673" y="411.5"/><ellipse cx="688" cy="427.5" fill="#ADD1B2" rx="11" ry="11" style="stroke: #A80036; stroke-width: 1.0;"/><path d="M690.7656,423.375 Q690.9219,423.1563 691.1094,423.0469 Q691.2969,422.9375 691.5156,422.9375 Q691.8906,422.9375 692.125,423.1953 Q692.3594,423.4531 692.3594,424.0625 L692.3594,425.5156 Q692.3594,426.125 692.125,426.3906 Q691.8906,426.6563 691.5156,426.6563 Q691.1719,426.6563 690.9688,426.4531 Q690.7656,426.2656 690.6563,425.75 Q690.6094,425.3906 690.4219,425.2031 Q690.0938,424.8281 689.4844,424.6094 Q688.875,424.3906 688.25,424.3906 Q687.4844,424.3906 686.8516,424.7188 Q686.2188,425.0469 685.7266,425.7969 Q685.2344,426.5469 685.2344,427.5781 L685.2344,428.6719 Q685.2344,429.9063 686.125,430.7266 Q687.0156,431.5469 688.6094,431.5469 Q689.5469,431.5469 690.2031,431.2969 Q690.5938,431.1406 691.0156,430.7031 Q691.2813,430.4375 691.4297,430.3594 Q691.5781,430.2813 691.7813,430.2813 Q692.1094,430.2813 692.3672,430.5391 Q692.625,430.7969 692.625,431.1406 Q692.625,431.4844 692.2813,431.8906 Q691.7813,432.4688 690.9844,432.7969 Q689.9063,433.25 688.6094,433.25 Q687.0938,433.25 685.8906,432.625 Q684.9063,432.125 684.2188,431.0547 Q683.5313,429.9844 683.5313,428.7031 L683.5313,427.5469 Q683.5313,426.2188 684.1484,425.0703 Q684.7656,423.9219 685.8594,423.3047 Q686.9531,422.6875 688.1875,422.6875 Q688.9219,422.6875 689.5703,422.8516 Q690.2188,423.0156 690.7656,423.375 Z "/><text fill="#000000" font-family="sans-serif" font-size="12" lengthAdjust="spacingAndGlyphs" textLength="37" x="702" y="432.4102">Supply</text><line style="stroke: #A80036; stroke-width: 1.5;" x1="674" x2="741" y1="443.5" y2="443.5"/><text fill="#000000" font-family="sans-serif" font-size="11" lengthAdjust="spacingAndGlyphs" textLength="35" x="679" y="458.9189">amount</text><text fill="#000000" font-family="sans-serif" font-size="11" lengthAdjust="spacingAndGlyphs" textLength="51" x="679" y="472.7549">order_item</text><line style="stroke: #A80036; stroke-width: 1.5;" x1="674" x2="741" y1="479.1719" y2="479.1719"/><!--class Supplier--><rect fill="#FEFECE" filter="url(#fci1qdv)" height="61.8359" style="stroke: #A80036; stroke-width: 1.5;" width="78" x="822.5" y="885"/><ellipse cx="837.5" cy="901" fill="#ADD1B2" rx="11" ry="11" style="stroke: #A80036; stroke-width: 1.0;"/><path d="M840.2656,896.875 Q840.4219,896.6563 840.6094,896.5469 Q840.7969,896.4375 841.0156,896.4375 Q841.3906,896.4375 841.625,896.6953 Q841.8594,896.9531 841.8594,897.5625 L841.8594,899.0156 Q841.8594,899.625 841.625,899.8906 Q841.3906,900.1563 841.0156,900.1563 Q840.6719,900.1563 840.4688,899.9531 Q840.2656,899.7656 840.1563,899.25 Q840.1094,898.8906 839.9219,898.7031 Q839.5938,898.3281 838.9844,898.1094 Q838.375,897.8906 837.75,897.8906 Q836.9844,897.8906 836.3516,898.2188 Q835.7188,898.5469 835.2266,899.2969 Q834.7344,900.0469 834.7344,901.0781 L834.7344,902.1719 Q834.7344,903.4063 835.625,904.2266 Q836.5156,905.0469 838.1094,905.0469 Q839.0469,905.0469 839.7031,904.7969 Q840.0938,904.6406 840.5156,904.2031 Q840.7813,903.9375 840.9297,903.8594 Q841.0781,903.7813 841.2813,903.7813 Q841.6094,903.7813 841.8672,904.0391 Q842.125,904.2969 842.125,904.6406 Q842.125,904.9844 841.7813,905.3906 Q841.2813,905.9688 840.4844,906.2969 Q839.4063,906.75 838.1094,906.75 Q836.5938,906.75 835.3906,906.125 Q834.4063,905.625 833.7188,904.5547 Q833.0313,903.4844 833.0313,902.2031 L833.0313,901.0469 Q833.0313,899.7188 833.6484,898.5703 Q834.2656,897.4219 835.3594,896.8047 Q836.4531,896.1875 837.6875,896.1875 Q838.4219,896.1875 839.0703,896.3516 Q839.7188,896.5156 840.2656,896.875 Z "/><text fill="#000000" font-family="sans-serif" font-size="12" lengthAdjust="spacingAndGlyphs" textLength="46" x="851.5" y="905.9102">Supplier</text><line style="stroke: #A80036; stroke-width: 1.5;" x1="823.5" x2="899.5" y1="917" y2="917"/><text fill="#000000" font-family="sans-serif" font-size="11" lengthAdjust="spacingAndGlyphs" textLength="36" x="828.5" y="932.4189">number</text><line style="stroke: #A80036; stroke-width: 1.5;" x1="823.5" x2="899.5" y1="938.8359" y2="938.8359"/><!--class Order--><rect fill="#FEFECE" filter="url(#fci1qdv)" height="131.0156" style="stroke: #A80036; stroke-width: 1.5;" width="234" x="600.5" y="607"/><ellipse cx="697.75" cy="623" fill="#ADD1B2" rx="11" ry="11" style="stroke: #A80036; stroke-width: 1.0;"/><path d="M700.5156,618.875 Q700.6719,618.6563 700.8594,618.5469 Q701.0469,618.4375 701.2656,618.4375 Q701.6406,618.4375 701.875,618.6953 Q702.1094,618.9531 702.1094,619.5625 L702.1094,621.0156 Q702.1094,621.625 701.875,621.8906 Q701.6406,622.1563 701.2656,622.1563 Q700.9219,622.1563 700.7188,621.9531 Q700.5156,621.7656 700.4063,621.25 Q700.3594,620.8906 700.1719,620.7031 Q699.8438,620.3281 699.2344,620.1094 Q698.625,619.8906 698,619.8906 Q697.2344,619.8906 696.6016,620.2188 Q695.9688,620.5469 695.4766,621.2969 Q694.9844,622.0469 694.9844,623.0781 L694.9844,624.1719 Q694.9844,625.4063 695.875,626.2266 Q696.7656,627.0469 698.3594,627.0469 Q699.2969,627.0469 699.9531,626.7969 Q700.3438,626.6406 700.7656,626.2031 Q701.0313,625.9375 701.1797,625.8594 Q701.3281,625.7813 701.5313,625.7813 Q701.8594,625.7813 702.1172,626.0391 Q702.375,626.2969 702.375,626.6406 Q702.375,626.9844 702.0313,627.3906 Q701.5313,627.9688 700.7344,628.2969 Q699.6563,628.75 698.3594,628.75 Q696.8438,628.75 695.6406,628.125 Q694.6563,627.625 693.9688,626.5547 Q693.2813,625.4844 693.2813,624.2031 L693.2813,623.0469 Q693.2813,621.7188 693.8984,620.5703 Q694.5156,619.4219 695.6094,618.8047 Q696.7031,618.1875 697.9375,618.1875 Q698.6719,618.1875 699.3203,618.3516 Q699.9688,618.5156 700.5156,618.875 Z "/><text fill="#000000" font-family="sans-serif" font-size="12" lengthAdjust="spacingAndGlyphs" textLength="31" x="718.25" y="627.9102">Order</text><line style="stroke: #A80036; stroke-width: 1.5;" x1="601.5" x2="833.5" y1="639" y2="639"/><text fill="#000000" font-family="sans-serif" font-size="11" lengthAdjust="spacingAndGlyphs" textLength="35" x="606.5" y="654.4189">amount</text><text fill="#000000" font-family="sans-serif" font-size="11" lengthAdjust="spacingAndGlyphs" textLength="59" x="606.5" y="668.2549">confirmation</text><text fill="#000000" font-family="sans-serif" font-size="11" lengthAdjust="spacingAndGlyphs" textLength="21" x="606.5" y="682.0908">date</text><text fill="#000000" font-family="sans-serif" font-size="11" lengthAdjust="spacingAndGlyphs" textLength="29" x="606.5" y="695.9268">datum</text><text fill="#000000" font-family="sans-serif" font-size="11" lengthAdjust="spacingAndGlyphs" textLength="36" x="606.5" y="709.7627">number</text><line style="stroke: #A80036; stroke-width: 1.5;" x1="601.5" x2="833.5" y1="716.1797" y2="716.1797"/><text fill="#000000" font-family="sans-serif" font-size="11" lengthAdjust="spacingAndGlyphs" textLength="222" x="606.5" y="731.5986">remains in back_order_pool(back_order_pool)</text><!--class Item--><rect fill="#FEFECE" filter="url(#fci1qdv)" height="117.1797" style="stroke: #A80036; stroke-width: 1.5;" width="304" x="320.5" y="857.5"/><ellipse cx="456.25" cy="873.5" fill="#ADD1B2" rx="11" ry="11" style="stroke: #A80036; stroke-width: 1.0;"/><path d="M459.0156,869.375 Q459.1719,869.1563 459.3594,869.0469 Q459.5469,868.9375 459.7656,868.9375 Q460.1406,868.9375 460.375,869.1953 Q460.6094,869.4531 460.6094,870.0625 L460.6094,871.5156 Q460.6094,872.125 460.375,872.3906 Q460.1406,872.6563 459.7656,872.6563 Q459.4219,872.6563 459.2188,872.4531 Q459.0156,872.2656 458.9063,871.75 Q458.8594,871.3906 458.6719,871.2031 Q458.3438,870.8281 457.7344,870.6094 Q457.125,870.3906 456.5,870.3906 Q455.7344,870.3906 455.1016,870.7188 Q454.4688,871.0469 453.9766,871.7969 Q453.4844,872.5469 453.4844,873.5781 L453.4844,874.6719 Q453.4844,875.9063 454.375,876.7266 Q455.2656,877.5469 456.8594,877.5469 Q457.7969,877.5469 458.4531,877.2969 Q458.8438,877.1406 459.2656,876.7031 Q459.5313,876.4375 459.6797,876.3594 Q459.8281,876.2813 460.0313,876.2813 Q460.3594,876.2813 460.6172,876.5391 Q460.875,876.7969 460.875,877.1406 Q460.875,877.4844 460.5313,877.8906 Q460.0313,878.4688 459.2344,878.7969 Q458.1563,879.25 456.8594,879.25 Q455.3438,879.25 454.1406,878.625 Q453.1563,878.125 452.4688,877.0547 Q451.7813,875.9844 451.7813,874.7031 L451.7813,873.5469 Q451.7813,872.2188 452.3984,871.0703 Q453.0156,869.9219 454.1094,869.3047 Q455.2031,868.6875 456.4375,868.6875 Q457.1719,868.6875 457.8203,868.8516 Q458.4688,869.0156 459.0156,869.375 Z "/><text fill="#000000" font-family="sans-serif" font-size="12" lengthAdjust="spacingAndGlyphs" textLength="24" x="476.75" y="878.4102">Item</text><line style="stroke: #A80036; stroke-width: 1.5;" x1="321.5" x2="623.5" y1="889.5" y2="889.5"/><text fill="#000000" font-family="sans-serif" font-size="11" lengthAdjust="spacingAndGlyphs" textLength="21" x="326.5" y="904.9189">cost</text><text fill="#000000" font-family="sans-serif" font-size="11" lengthAdjust="spacingAndGlyphs" textLength="24" x="326.5" y="918.7549">price</text><text fill="#000000" font-family="sans-serif" font-size="11" lengthAdjust="spacingAndGlyphs" textLength="19" x="326.5" y="932.5908">time</text><line style="stroke: #A80036; stroke-width: 1.5;" x1="321.5" x2="623.5" y1="939.0078" y2="939.0078"/><text fill="#000000" font-family="sans-serif" font-size="11" lengthAdjust="spacingAndGlyphs" textLength="292" x="326.5" y="954.4268">is sent together with order_confirmation(order_confirmation)</text><text fill="#000000" font-family="sans-serif" font-size="11" lengthAdjust="spacingAndGlyphs" textLength="249" x="326.5" y="968.2627">is sent with order_confirmation(order_confirmation)</text><!--class Back_order_pool--><rect fill="#FEFECE" filter="url(#fci1qdv)" height="48" style="stroke: #A80036; stroke-width: 1.5;" width="126" x="659.5" y="892"/><ellipse cx="674.5" cy="908" fill="#ADD1B2" rx="11" ry="11" style="stroke: #A80036; stroke-width: 1.0;"/><path d="M677.2656,903.875 Q677.4219,903.6563 677.6094,903.5469 Q677.7969,903.4375 678.0156,903.4375 Q678.3906,903.4375 678.625,903.6953 Q678.8594,903.9531 678.8594,904.5625 L678.8594,906.0156 Q678.8594,906.625 678.625,906.8906 Q678.3906,907.1563 678.0156,907.1563 Q677.6719,907.1563 677.4688,906.9531 Q677.2656,906.7656 677.1563,906.25 Q677.1094,905.8906 676.9219,905.7031 Q676.5938,905.3281 675.9844,905.1094 Q675.375,904.8906 674.75,904.8906 Q673.9844,904.8906 673.3516,905.2188 Q672.7188,905.5469 672.2266,906.2969 Q671.7344,907.0469 671.7344,908.0781 L671.7344,909.1719 Q671.7344,910.4063 672.625,911.2266 Q673.5156,912.0469 675.1094,912.0469 Q676.0469,912.0469 676.7031,911.7969 Q677.0938,911.6406 677.5156,911.2031 Q677.7813,910.9375 677.9297,910.8594 Q678.0781,910.7813 678.2813,910.7813 Q678.6094,910.7813 678.8672,911.0391 Q679.125,911.2969 679.125,911.6406 Q679.125,911.9844 678.7813,912.3906 Q678.2813,912.9688 677.4844,913.2969 Q676.4063,913.75 675.1094,913.75 Q673.5938,913.75 672.3906,913.125 Q671.4063,912.625 670.7188,911.5547 Q670.0313,910.4844 670.0313,909.2031 L670.0313,908.0469 Q670.0313,906.7188 670.6484,905.5703 Q671.2656,904.4219 672.3594,903.8047 Q673.4531,903.1875 674.6875,903.1875 Q675.4219,903.1875 676.0703,903.3516 Q676.7188,903.5156 677.2656,903.875 Z "/><text fill="#000000" font-family="sans-serif" font-size="12" lengthAdjust="spacingAndGlyphs" textLength="94" x="688.5" y="912.9102">Back_order_pool</text><line style="stroke: #A80036; stroke-width: 1.5;" x1="660.5" x2="784.5" y1="924" y2="924"/><line style="stroke: #A80036; stroke-width: 1.5;" x1="660.5" x2="784.5" y1="932" y2="932"/><!--class Pool--><rect fill="#FEFECE" filter="url(#fci1qdv)" height="48" style="stroke: #A80036; stroke-width: 1.5;" width="57" x="6" y="648.5"/><ellipse cx="21" cy="664.5" fill="#ADD1B2" rx="11" ry="11" style="stroke: #A80036; stroke-width: 1.0;"/><path d="M23.7656,660.375 Q23.9219,660.1563 24.1094,660.0469 Q24.2969,659.9375 24.5156,659.9375 Q24.8906,659.9375 25.125,660.1953 Q25.3594,660.4531 25.3594,661.0625 L25.3594,662.5156 Q25.3594,663.125 25.125,663.3906 Q24.8906,663.6563 24.5156,663.6563 Q24.1719,663.6563 23.9688,663.4531 Q23.7656,663.2656 23.6563,662.75 Q23.6094,662.3906 23.4219,662.2031 Q23.0938,661.8281 22.4844,661.6094 Q21.875,661.3906 21.25,661.3906 Q20.4844,661.3906 19.8516,661.7188 Q19.2188,662.0469 18.7266,662.7969 Q18.2344,663.5469 18.2344,664.5781 L18.2344,665.6719 Q18.2344,666.9063 19.125,667.7266 Q20.0156,668.5469 21.6094,668.5469 Q22.5469,668.5469 23.2031,668.2969 Q23.5938,668.1406 24.0156,667.7031 Q24.2813,667.4375 24.4297,667.3594 Q24.5781,667.2813 24.7813,667.2813 Q25.1094,667.2813 25.3672,667.5391 Q25.625,667.7969 25.625,668.1406 Q25.625,668.4844 25.2813,668.8906 Q24.7813,669.4688 23.9844,669.7969 Q22.9063,670.25 21.6094,670.25 Q20.0938,670.25 18.8906,669.625 Q17.9063,669.125 17.2188,668.0547 Q16.5313,666.9844 16.5313,665.7031 L16.5313,664.5469 Q16.5313,663.2188 17.1484,662.0703 Q17.7656,660.9219 18.8594,660.3047 Q19.9531,659.6875 21.1875,659.6875 Q21.9219,659.6875 22.5703,659.8516 Q23.2188,660.0156 23.7656,660.375 Z "/><text fill="#000000" font-family="sans-serif" font-size="12" lengthAdjust="spacingAndGlyphs" textLength="25" x="35" y="669.4102">Pool</text><line style="stroke: #A80036; stroke-width: 1.5;" x1="7" x2="62" y1="680.5" y2="680.5"/><line style="stroke: #A80036; stroke-width: 1.5;" x1="7" x2="62" y1="688.5" y2="688.5"/><!--class Bill--><rect fill="#FEFECE" filter="url(#fci1qdv)" height="75.6719" style="stroke: #A80036; stroke-width: 1.5;" width="200" x="79.5" y="411.5"/><ellipse cx="166.75" cy="427.5" fill="#ADD1B2" rx="11" ry="11" style="stroke: #A80036; stroke-width: 1.0;"/><path d="M169.5156,423.375 Q169.6719,423.1563 169.8594,423.0469 Q170.0469,422.9375 170.2656,422.9375 Q170.6406,422.9375 170.875,423.1953 Q171.1094,423.4531 171.1094,424.0625 L171.1094,425.5156 Q171.1094,426.125 170.875,426.3906 Q170.6406,426.6563 170.2656,426.6563 Q169.9219,426.6563 169.7188,426.4531 Q169.5156,426.2656 169.4063,425.75 Q169.3594,425.3906 169.1719,425.2031 Q168.8438,424.8281 168.2344,424.6094 Q167.625,424.3906 167,424.3906 Q166.2344,424.3906 165.6016,424.7188 Q164.9688,425.0469 164.4766,425.7969 Q163.9844,426.5469 163.9844,427.5781 L163.9844,428.6719 Q163.9844,429.9063 164.875,430.7266 Q165.7656,431.5469 167.3594,431.5469 Q168.2969,431.5469 168.9531,431.2969 Q169.3438,431.1406 169.7656,430.7031 Q170.0313,430.4375 170.1797,430.3594 Q170.3281,430.2813 170.5313,430.2813 Q170.8594,430.2813 171.1172,430.5391 Q171.375,430.7969 171.375,431.1406 Q171.375,431.4844 171.0313,431.8906 Q170.5313,432.4688 169.7344,432.7969 Q168.6563,433.25 167.3594,433.25 Q165.8438,433.25 164.6406,432.625 Q163.6563,432.125 162.9688,431.0547 Q162.2813,429.9844 162.2813,428.7031 L162.2813,427.5469 Q162.2813,426.2188 162.8984,425.0703 Q163.5156,423.9219 164.6094,423.3047 Q165.7031,422.6875 166.9375,422.6875 Q167.6719,422.6875 168.3203,422.8516 Q168.9688,423.0156 169.5156,423.375 Z "/><text fill="#000000" font-family="sans-serif" font-size="12" lengthAdjust="spacingAndGlyphs" textLength="17" x="187.25" y="432.4102">Bill</text><line style="stroke: #A80036; stroke-width: 1.5;" x1="80.5" x2="278.5" y1="443.5" y2="443.5"/><line style="stroke: #A80036; stroke-width: 1.5;" x1="80.5" x2="278.5" y1="451.5" y2="451.5"/><text fill="#000000" font-family="sans-serif" font-size="11" lengthAdjust="spacingAndGlyphs" textLength="188" x="85.5" y="466.9189">removed from back_order(back_order)</text><text fill="#000000" font-family="sans-serif" font-size="11" lengthAdjust="spacingAndGlyphs" textLength="118" x="85.5" y="480.7549">removed from pool(pool)</text><!--class System--><rect fill="#FEFECE" filter="url(#fci1qdv)" height="103.3438" style="stroke: #A80036; stroke-width: 1.5;" width="116" x="1355.5" y="621"/><ellipse cx="1389.85" cy="637" fill="#ADD1B2" rx="11" ry="11" style="stroke: #A80036; stroke-width: 1.0;"/><path d="M1392.6156,632.875 Q1392.7719,632.6563 1392.9594,632.5469 Q1393.1469,632.4375 1393.3656,632.4375 Q1393.7406,632.4375 1393.975,632.6953 Q1394.2094,632.9531 1394.2094,633.5625 L1394.2094,635.0156 Q1394.2094,635.625 1393.975,635.8906 Q1393.7406,636.1563 1393.3656,636.1563 Q1393.0219,636.1563 1392.8188,635.9531 Q1392.6156,635.7656 1392.5063,635.25 Q1392.4594,634.8906 1392.2719,634.7031 Q1391.9438,634.3281 1391.3344,634.1094 Q1390.725,633.8906 1390.1,633.8906 Q1389.3344,633.8906 1388.7016,634.2188 Q1388.0688,634.5469 1387.5766,635.2969 Q1387.0844,636.0469 1387.0844,637.0781 L1387.0844,638.1719 Q1387.0844,639.4063 1387.975,640.2266 Q1388.8656,641.0469 1390.4594,641.0469 Q1391.3969,641.0469 1392.0531,640.7969 Q1392.4438,640.6406 1392.8656,640.2031 Q1393.1313,639.9375 1393.2797,639.8594 Q1393.4281,639.7813 1393.6313,639.7813 Q1393.9594,639.7813 1394.2172,640.0391 Q1394.475,640.2969 1394.475,640.6406 Q1394.475,640.9844 1394.1313,641.3906 Q1393.6313,641.9688 1392.8344,642.2969 Q1391.7563,642.75 1390.4594,642.75 Q1388.9438,642.75 1387.7406,642.125 Q1386.7563,641.625 1386.0688,640.5547 Q1385.3813,639.4844 1385.3813,638.2031 L1385.3813,637.0469 Q1385.3813,635.7188 1385.9984,634.5703 Q1386.6156,633.4219 1387.7094,632.8047 Q1388.8031,632.1875 1390.0375,632.1875 Q1390.7719,632.1875 1391.4203,632.3516 Q1392.0688,632.5156 1392.6156,632.875 Z "/><text fill="#000000" font-family="sans-serif" font-size="12" lengthAdjust="spacingAndGlyphs" textLength="41" x="1408.15" y="641.9102">System</text><line style="stroke: #A80036; stroke-width: 1.5;" x1="1356.5" x2="1470.5" y1="653" y2="653"/><text fill="#000000" font-family="sans-serif" font-size="11" lengthAdjust="spacingAndGlyphs" textLength="20" x="1361.5" y="668.4189">sum</text><line style="stroke: #A80036; stroke-width: 1.5;" x1="1356.5" x2="1470.5" y1="674.8359" y2="674.8359"/><text fill="#000000" font-family="sans-serif" font-size="11" lengthAdjust="spacingAndGlyphs" textLength="59" x="1361.5" y="690.2549">is required()</text><text fill="#000000" font-family="sans-serif" font-size="11" lengthAdjust="spacingAndGlyphs" textLength="104" x="1361.5" y="704.0908">monitor article(article)</text><text fill="#000000" font-family="sans-serif" font-size="11" lengthAdjust="spacingAndGlyphs" textLength="98" x="1361.5" y="717.9268">monitor stock(stock)</text><!--class Back_order--><rect fill="#FEFECE" filter="url(#fci1qdv)" height="75.6719" style="stroke: #A80036; stroke-width: 1.5;" width="95" x="328" y="634.5"/><ellipse cx="343" cy="650.5" fill="#ADD1B2" rx="11" ry="11" style="stroke: #A80036; stroke-width: 1.0;"/><path d="M345.7656,646.375 Q345.9219,646.1563 346.1094,646.0469 Q346.2969,645.9375 346.5156,645.9375 Q346.8906,645.9375 347.125,646.1953 Q347.3594,646.4531 347.3594,647.0625 L347.3594,648.5156 Q347.3594,649.125 347.125,649.3906 Q346.8906,649.6563 346.5156,649.6563 Q346.1719,649.6563 345.9688,649.4531 Q345.7656,649.2656 345.6563,648.75 Q345.6094,648.3906 345.4219,648.2031 Q345.0938,647.8281 344.4844,647.6094 Q343.875,647.3906 343.25,647.3906 Q342.4844,647.3906 341.8516,647.7188 Q341.2188,648.0469 340.7266,648.7969 Q340.2344,649.5469 340.2344,650.5781 L340.2344,651.6719 Q340.2344,652.9063 341.125,653.7266 Q342.0156,654.5469 343.6094,654.5469 Q344.5469,654.5469 345.2031,654.2969 Q345.5938,654.1406 346.0156,653.7031 Q346.2813,653.4375 346.4297,653.3594 Q346.5781,653.2813 346.7813,653.2813 Q347.1094,653.2813 347.3672,653.5391 Q347.625,653.7969 347.625,654.1406 Q347.625,654.4844 347.2813,654.8906 Q346.7813,655.4688 345.9844,655.7969 Q344.9063,656.25 343.6094,656.25 Q342.0938,656.25 340.8906,655.625 Q339.9063,655.125 339.2188,654.0547 Q338.5313,652.9844 338.5313,651.7031 L338.5313,650.5469 Q338.5313,649.2188 339.1484,648.0703 Q339.7656,646.9219 340.8594,646.3047 Q341.9531,645.6875 343.1875,645.6875 Q343.9219,645.6875 344.5703,645.8516 Q345.2188,646.0156 345.7656,646.375 Z "/><text fill="#000000" font-family="sans-serif" font-size="12" lengthAdjust="spacingAndGlyphs" textLength="63" x="357" y="655.4102">Back_order</text><line style="stroke: #A80036; stroke-width: 1.5;" x1="329" x2="422" y1="666.5" y2="666.5"/><text fill="#000000" font-family="sans-serif" font-size="11" lengthAdjust="spacingAndGlyphs" textLength="14" x="334" y="681.9189">file</text><text fill="#000000" font-family="sans-serif" font-size="11" lengthAdjust="spacingAndGlyphs" textLength="20" x="334" y="695.7549">pool</text><line style="stroke: #A80036; stroke-width: 1.5;" x1="329" x2="422" y1="702.1719" y2="702.1719"/><!--class Moment--><rect fill="#FEFECE" filter="url(#fci1qdv)" height="48" style="stroke: #A80036; stroke-width: 1.5;" width="76" x="935.5" y="892"/><ellipse cx="950.5" cy="908" fill="#ADD1B2" rx="11" ry="11" style="stroke: #A80036; stroke-width: 1.0;"/><path d="M953.2656,903.875 Q953.4219,903.6563 953.6094,903.5469 Q953.7969,903.4375 954.0156,903.4375 Q954.3906,903.4375 954.625,903.6953 Q954.8594,903.9531 954.8594,904.5625 L954.8594,906.0156 Q954.8594,906.625 954.625,906.8906 Q954.3906,907.1563 954.0156,907.1563 Q953.6719,907.1563 953.4688,906.9531 Q953.2656,906.7656 953.1563,906.25 Q953.1094,905.8906 952.9219,905.7031 Q952.5938,905.3281 951.9844,905.1094 Q951.375,904.8906 950.75,904.8906 Q949.9844,904.8906 949.3516,905.2188 Q948.7188,905.5469 948.2266,906.2969 Q947.7344,907.0469 947.7344,908.0781 L947.7344,909.1719 Q947.7344,910.4063 948.625,911.2266 Q949.5156,912.0469 951.1094,912.0469 Q952.0469,912.0469 952.7031,911.7969 Q953.0938,911.6406 953.5156,911.2031 Q953.7813,910.9375 953.9297,910.8594 Q954.0781,910.7813 954.2813,910.7813 Q954.6094,910.7813 954.8672,911.0391 Q955.125,911.2969 955.125,911.6406 Q955.125,911.9844 954.7813,912.3906 Q954.2813,912.9688 953.4844,913.2969 Q952.4063,913.75 951.1094,913.75 Q949.5938,913.75 948.3906,913.125 Q947.4063,912.625 946.7188,911.5547 Q946.0313,910.4844 946.0313,909.2031 L946.0313,908.0469 Q946.0313,906.7188 946.6484,905.5703 Q947.2656,904.4219 948.3594,903.8047 Q949.4531,903.1875 950.6875,903.1875 Q951.4219,903.1875 952.0703,903.3516 Q952.7188,903.5156 953.2656,903.875 Z "/><text fill="#000000" font-family="sans-serif" font-size="12" lengthAdjust="spacingAndGlyphs" textLength="44" x="964.5" y="912.9102">Moment</text><line style="stroke: #A80036; stroke-width: 1.5;" x1="936.5" x2="1010.5" y1="924" y2="924"/><line style="stroke: #A80036; stroke-width: 1.5;" x1="936.5" x2="1010.5" y1="932" y2="932"/><!--class Dispatch_order--><rect fill="#FEFECE" filter="url(#fci1qdv)" height="75.6719" style="stroke: #A80036; stroke-width: 1.5;" width="194" x="98.5" y="634.5"/><ellipse cx="148.75" cy="650.5" fill="#ADD1B2" rx="11" ry="11" style="stroke: #A80036; stroke-width: 1.0;"/><path d="M151.5156,646.375 Q151.6719,646.1563 151.8594,646.0469 Q152.0469,645.9375 152.2656,645.9375 Q152.6406,645.9375 152.875,646.1953 Q153.1094,646.4531 153.1094,647.0625 L153.1094,648.5156 Q153.1094,649.125 152.875,649.3906 Q152.6406,649.6563 152.2656,649.6563 Q151.9219,649.6563 151.7188,649.4531 Q151.5156,649.2656 151.4063,648.75 Q151.3594,648.3906 151.1719,648.2031 Q150.8438,647.8281 150.2344,647.6094 Q149.625,647.3906 149,647.3906 Q148.2344,647.3906 147.6016,647.7188 Q146.9688,648.0469 146.4766,648.7969 Q145.9844,649.5469 145.9844,650.5781 L145.9844,651.6719 Q145.9844,652.9063 146.875,653.7266 Q147.7656,654.5469 149.3594,654.5469 Q150.2969,654.5469 150.9531,654.2969 Q151.3438,654.1406 151.7656,653.7031 Q152.0313,653.4375 152.1797,653.3594 Q152.3281,653.2813 152.5313,653.2813 Q152.8594,653.2813 153.1172,653.5391 Q153.375,653.7969 153.375,654.1406 Q153.375,654.4844 153.0313,654.8906 Q152.5313,655.4688 151.7344,655.7969 Q150.6563,656.25 149.3594,656.25 Q147.8438,656.25 146.6406,655.625 Q145.6563,655.125 144.9688,654.0547 Q144.2813,652.9844 144.2813,651.7031 L144.2813,650.5469 Q144.2813,649.2188 144.8984,648.0703 Q145.5156,646.9219 146.6094,646.3047 Q147.7031,645.6875 148.9375,645.6875 Q149.6719,645.6875 150.3203,645.8516 Q150.9688,646.0156 151.5156,646.375 Z "/><text fill="#000000" font-family="sans-serif" font-size="12" lengthAdjust="spacingAndGlyphs" textLength="85" x="169.25" y="655.4102">Dispatch_order</text><line style="stroke: #A80036; stroke-width: 1.5;" x1="99.5" x2="291.5" y1="666.5" y2="666.5"/><text fill="#000000" font-family="sans-serif" font-size="11" lengthAdjust="spacingAndGlyphs" textLength="13" x="104.5" y="681.9189">list</text><line style="stroke: #A80036; stroke-width: 1.5;" x1="99.5" x2="291.5" y1="688.3359" y2="688.3359"/><text fill="#000000" font-family="sans-serif" font-size="11" lengthAdjust="spacingAndGlyphs" textLength="182" x="104.5" y="703.7549">sent dispatch_office(dispatch_office)</text><!--class Supply_order--><rect fill="#FEFECE" filter="url(#fci1qdv)" height="89.5078" style="stroke: #A80036; stroke-width: 1.5;" width="241" x="870" y="627.5"/><ellipse cx="949.75" cy="643.5" fill="#ADD1B2" rx="11" ry="11" style="stroke: #A80036; stroke-width: 1.0;"/><path d="M952.5156,639.375 Q952.6719,639.1563 952.8594,639.0469 Q953.0469,638.9375 953.2656,638.9375 Q953.6406,638.9375 953.875,639.1953 Q954.1094,639.4531 954.1094,640.0625 L954.1094,641.5156 Q954.1094,642.125 953.875,642.3906 Q953.6406,642.6563 953.2656,642.6563 Q952.9219,642.6563 952.7188,642.4531 Q952.5156,642.2656 952.4063,641.75 Q952.3594,641.3906 952.1719,641.2031 Q951.8438,640.8281 951.2344,640.6094 Q950.625,640.3906 950,640.3906 Q949.2344,640.3906 948.6016,640.7188 Q947.9688,641.0469 947.4766,641.7969 Q946.9844,642.5469 946.9844,643.5781 L946.9844,644.6719 Q946.9844,645.9063 947.875,646.7266 Q948.7656,647.5469 950.3594,647.5469 Q951.2969,647.5469 951.9531,647.2969 Q952.3438,647.1406 952.7656,646.7031 Q953.0313,646.4375 953.1797,646.3594 Q953.3281,646.2813 953.5313,646.2813 Q953.8594,646.2813 954.1172,646.5391 Q954.375,646.7969 954.375,647.1406 Q954.375,647.4844 954.0313,647.8906 Q953.5313,648.4688 952.7344,648.7969 Q951.6563,649.25 950.3594,649.25 Q948.8438,649.25 947.6406,648.625 Q946.6563,648.125 945.9688,647.0547 Q945.2813,645.9844 945.2813,644.7031 L945.2813,643.5469 Q945.2813,642.2188 945.8984,641.0703 Q946.5156,639.9219 947.6094,639.3047 Q948.7031,638.6875 949.9375,638.6875 Q950.6719,638.6875 951.3203,638.8516 Q951.9688,639.0156 952.5156,639.375 Z "/><text fill="#000000" font-family="sans-serif" font-size="12" lengthAdjust="spacingAndGlyphs" textLength="73" x="970.25" y="648.4102">Supply_order</text><line style="stroke: #A80036; stroke-width: 1.5;" x1="871" x2="1110" y1="659.5" y2="659.5"/><line style="stroke: #A80036; stroke-width: 1.5;" x1="871" x2="1110" y1="667.5" y2="667.5"/><text fill="#000000" font-family="sans-serif" font-size="11" lengthAdjust="spacingAndGlyphs" textLength="229" x="876" y="682.9189">is sent out supplier at moment(supplier,moment)</text><text fill="#000000" font-family="sans-serif" font-size="11" lengthAdjust="spacingAndGlyphs" textLength="192" x="876" y="696.7549">is sent out supplier in time(supplier,time)</text><text fill="#000000" font-family="sans-serif" font-size="11" lengthAdjust="spacingAndGlyphs" textLength="137" x="876" y="710.5908">is sent out supplier(supplier)</text><!--class Article_type--><rect fill="#FEFECE" filter="url(#fci1qdv)" height="61.8359" style="stroke: #A80036; stroke-width: 1.5;" width="94" x="277.5" y="28.5"/><ellipse cx="292.5" cy="44.5" fill="#ADD1B2" rx="11" ry="11" style="stroke: #A80036; stroke-width: 1.0;"/><path d="M295.2656,40.375 Q295.4219,40.1563 295.6094,40.0469 Q295.7969,39.9375 296.0156,39.9375 Q296.3906,39.9375 296.625,40.1953 Q296.8594,40.4531 296.8594,41.0625 L296.8594,42.5156 Q296.8594,43.125 296.625,43.3906 Q296.3906,43.6563 296.0156,43.6563 Q295.6719,43.6563 295.4688,43.4531 Q295.2656,43.2656 295.1563,42.75 Q295.1094,42.3906 294.9219,42.2031 Q294.5938,41.8281 293.9844,41.6094 Q293.375,41.3906 292.75,41.3906 Q291.9844,41.3906 291.3516,41.7188 Q290.7188,42.0469 290.2266,42.7969 Q289.7344,43.5469 289.7344,44.5781 L289.7344,45.6719 Q289.7344,46.9063 290.625,47.7266 Q291.5156,48.5469 293.1094,48.5469 Q294.0469,48.5469 294.7031,48.2969 Q295.0938,48.1406 295.5156,47.7031 Q295.7813,47.4375 295.9297,47.3594 Q296.0781,47.2813 296.2813,47.2813 Q296.6094,47.2813 296.8672,47.5391 Q297.125,47.7969 297.125,48.1406 Q297.125,48.4844 296.7813,48.8906 Q296.2813,49.4688 295.4844,49.7969 Q294.4063,50.25 293.1094,50.25 Q291.5938,50.25 290.3906,49.625 Q289.4063,49.125 288.7188,48.0547 Q288.0313,46.9844 288.0313,45.7031 L288.0313,44.5469 Q288.0313,43.2188 288.6484,42.0703 Q289.2656,40.9219 290.3594,40.3047 Q291.4531,39.6875 292.6875,39.6875 Q293.4219,39.6875 294.0703,39.8516 Q294.7188,40.0156 295.2656,40.375 Z "/><text fill="#000000" font-family="sans-serif" font-size="12" lengthAdjust="spacingAndGlyphs" textLength="62" x="306.5" y="49.4102">Article_type</text><line style="stroke: #A80036; stroke-width: 1.5;" x1="278.5" x2="370.5" y1="60.5" y2="60.5"/><text fill="#000000" font-family="sans-serif" font-size="11" lengthAdjust="spacingAndGlyphs" textLength="26" x="283.5" y="75.9189">stock</text><line style="stroke: #A80036; stroke-width: 1.5;" x1="278.5" x2="370.5" y1="82.3359" y2="82.3359"/><!--class Order_confirmation--><rect fill="#FEFECE" filter="url(#fci1qdv)" height="48" style="stroke: #A80036; stroke-width: 1.5;" width="138" x="403.5" y="1094"/><ellipse cx="418.5" cy="1110" fill="#ADD1B2" rx="11" ry="11" style="stroke: #A80036; stroke-width: 1.0;"/><path d="M421.2656,1105.875 Q421.4219,1105.6563 421.6094,1105.5469 Q421.7969,1105.4375 422.0156,1105.4375 Q422.3906,1105.4375 422.625,1105.6953 Q422.8594,1105.9531 422.8594,1106.5625 L422.8594,1108.0156 Q422.8594,1108.625 422.625,1108.8906 Q422.3906,1109.1563 422.0156,1109.1563 Q421.6719,1109.1563 421.4688,1108.9531 Q421.2656,1108.7656 421.1563,1108.25 Q421.1094,1107.8906 420.9219,1107.7031 Q420.5938,1107.3281 419.9844,1107.1094 Q419.375,1106.8906 418.75,1106.8906 Q417.9844,1106.8906 417.3516,1107.2188 Q416.7188,1107.5469 416.2266,1108.2969 Q415.7344,1109.0469 415.7344,1110.0781 L415.7344,1111.1719 Q415.7344,1112.4063 416.625,1113.2266 Q417.5156,1114.0469 419.1094,1114.0469 Q420.0469,1114.0469 420.7031,1113.7969 Q421.0938,1113.6406 421.5156,1113.2031 Q421.7813,1112.9375 421.9297,1112.8594 Q422.0781,1112.7813 422.2813,1112.7813 Q422.6094,1112.7813 422.8672,1113.0391 Q423.125,1113.2969 423.125,1113.6406 Q423.125,1113.9844 422.7813,1114.3906 Q422.2813,1114.9688 421.4844,1115.2969 Q420.4063,1115.75 419.1094,1115.75 Q417.5938,1115.75 416.3906,1115.125 Q415.4063,1114.625 414.7188,1113.5547 Q414.0313,1112.4844 414.0313,1111.2031 L414.0313,1110.0469 Q414.0313,1108.7188 414.6484,1107.5703 Q415.2656,1106.4219 416.3594,1105.8047 Q417.4531,1105.1875 418.6875,1105.1875 Q419.4219,1105.1875 420.0703,1105.3516 Q420.7188,1105.5156 421.2656,1105.875 Z "/><text fill="#000000" font-family="sans-serif" font-size="12" lengthAdjust="spacingAndGlyphs" textLength="106" x="432.5" y="1114.9102">Order_confirmation</text><line style="stroke: #A80036; stroke-width: 1.5;" x1="404.5" x2="540.5" y1="1126" y2="1126"/><line style="stroke: #A80036; stroke-width: 1.5;" x1="404.5" x2="540.5" y1="1134" y2="1134"/><!--class Customer_order--><rect fill="#FEFECE" filter="url(#fci1qdv)" height="61.8359" style="stroke: #A80036; stroke-width: 1.5;" width="142" x="525.5" y="28.5"/><ellipse cx="549.05" cy="44.5" fill="#ADD1B2" rx="11" ry="11" style="stroke: #A80036; stroke-width: 1.0;"/><path d="M551.8156,40.375 Q551.9719,40.1563 552.1594,40.0469 Q552.3469,39.9375 552.5656,39.9375 Q552.9406,39.9375 553.175,40.1953 Q553.4094,40.4531 553.4094,41.0625 L553.4094,42.5156 Q553.4094,43.125 553.175,43.3906 Q552.9406,43.6563 552.5656,43.6563 Q552.2219,43.6563 552.0188,43.4531 Q551.8156,43.2656 551.7063,42.75 Q551.6594,42.3906 551.4719,42.2031 Q551.1438,41.8281 550.5344,41.6094 Q549.925,41.3906 549.3,41.3906 Q548.5344,41.3906 547.9016,41.7188 Q547.2688,42.0469 546.7766,42.7969 Q546.2844,43.5469 546.2844,44.5781 L546.2844,45.6719 Q546.2844,46.9063 547.175,47.7266 Q548.0656,48.5469 549.6594,48.5469 Q550.5969,48.5469 551.2531,48.2969 Q551.6438,48.1406 552.0656,47.7031 Q552.3313,47.4375 552.4797,47.3594 Q552.6281,47.2813 552.8313,47.2813 Q553.1594,47.2813 553.4172,47.5391 Q553.675,47.7969 553.675,48.1406 Q553.675,48.4844 553.3313,48.8906 Q552.8313,49.4688 552.0344,49.7969 Q550.9563,50.25 549.6594,50.25 Q548.1438,50.25 546.9406,49.625 Q545.9563,49.125 545.2688,48.0547 Q544.5813,46.9844 544.5813,45.7031 L544.5813,44.5469 Q544.5813,43.2188 545.1984,42.0703 Q545.8156,40.9219 546.9094,40.3047 Q548.0031,39.6875 549.2375,39.6875 Q549.9719,39.6875 550.6203,39.8516 Q551.2688,40.0156 551.8156,40.375 Z "/><text fill="#000000" font-family="sans-serif" font-size="12" lengthAdjust="spacingAndGlyphs" textLength="91" x="564.95" y="49.4102">Customer_order</text><line style="stroke: #A80036; stroke-width: 1.5;" x1="526.5" x2="666.5" y1="60.5" y2="60.5"/><line style="stroke: #A80036; stroke-width: 1.5;" x1="526.5" x2="666.5" y1="68.5" y2="68.5"/><text fill="#000000" font-family="sans-serif" font-size="11" lengthAdjust="spacingAndGlyphs" textLength="130" x="531.5" y="83.9189">For Billing i invoice(invoice)</text><!--class Minimum--><rect fill="#FEFECE" filter="url(#fci1qdv)" height="103.3438" style="stroke: #A80036; stroke-width: 1.5;" width="83" x="407" y="8"/><ellipse cx="422" cy="24" fill="#ADD1B2" rx="11" ry="11" style="stroke: #A80036; stroke-width: 1.0;"/><path d="M424.7656,19.875 Q424.9219,19.6563 425.1094,19.5469 Q425.2969,19.4375 425.5156,19.4375 Q425.8906,19.4375 426.125,19.6953 Q426.3594,19.9531 426.3594,20.5625 L426.3594,22.0156 Q426.3594,22.625 426.125,22.8906 Q425.8906,23.1563 425.5156,23.1563 Q425.1719,23.1563 424.9688,22.9531 Q424.7656,22.7656 424.6563,22.25 Q424.6094,21.8906 424.4219,21.7031 Q424.0938,21.3281 423.4844,21.1094 Q422.875,20.8906 422.25,20.8906 Q421.4844,20.8906 420.8516,21.2188 Q420.2188,21.5469 419.7266,22.2969 Q419.2344,23.0469 419.2344,24.0781 L419.2344,25.1719 Q419.2344,26.4063 420.125,27.2266 Q421.0156,28.0469 422.6094,28.0469 Q423.5469,28.0469 424.2031,27.7969 Q424.5938,27.6406 425.0156,27.2031 Q425.2813,26.9375 425.4297,26.8594 Q425.5781,26.7813 425.7813,26.7813 Q426.1094,26.7813 426.3672,27.0391 Q426.625,27.2969 426.625,27.6406 Q426.625,27.9844 426.2813,28.3906 Q425.7813,28.9688 424.9844,29.2969 Q423.9063,29.75 422.6094,29.75 Q421.0938,29.75 419.8906,29.125 Q418.9063,28.625 418.2188,27.5547 Q417.5313,26.4844 417.5313,25.2031 L417.5313,24.0469 Q417.5313,22.7188 418.1484,21.5703 Q418.7656,20.4219 419.8594,19.8047 Q420.9531,19.1875 422.1875,19.1875 Q422.9219,19.1875 423.5703,19.3516 Q424.2188,19.5156 424.7656,19.875 Z "/><text fill="#000000" font-family="sans-serif" font-size="12" lengthAdjust="spacingAndGlyphs" textLength="51" x="436" y="28.9102">Minimum</text><line style="stroke: #A80036; stroke-width: 1.5;" x1="408" x2="489" y1="40" y2="40"/><text fill="#000000" font-family="sans-serif" font-size="11" lengthAdjust="spacingAndGlyphs" textLength="35" x="413" y="55.4189">amount</text><text fill="#000000" font-family="sans-serif" font-size="11" lengthAdjust="spacingAndGlyphs" textLength="70" x="413" y="69.2549">article_amount</text><text fill="#000000" font-family="sans-serif" font-size="11" lengthAdjust="spacingAndGlyphs" textLength="67" x="413" y="83.0908">order_amount</text><text fill="#000000" font-family="sans-serif" font-size="11" lengthAdjust="spacingAndGlyphs" textLength="38" x="413" y="96.9268">quantity</text><line style="stroke: #A80036; stroke-width: 1.5;" x1="408" x2="489" y1="103.3438" y2="103.3438"/><!--class Dispatch--><rect fill="#FEFECE" filter="url(#fci1qdv)" height="75.6719" style="stroke: #A80036; stroke-width: 1.5;" width="81" x="548" y="411.5"/><ellipse cx="563" cy="427.5" fill="#ADD1B2" rx="11" ry="11" style="stroke: #A80036; stroke-width: 1.0;"/><path d="M565.7656,423.375 Q565.9219,423.1563 566.1094,423.0469 Q566.2969,422.9375 566.5156,422.9375 Q566.8906,422.9375 567.125,423.1953 Q567.3594,423.4531 567.3594,424.0625 L567.3594,425.5156 Q567.3594,426.125 567.125,426.3906 Q566.8906,426.6563 566.5156,426.6563 Q566.1719,426.6563 565.9688,426.4531 Q565.7656,426.2656 565.6563,425.75 Q565.6094,425.3906 565.4219,425.2031 Q565.0938,424.8281 564.4844,424.6094 Q563.875,424.3906 563.25,424.3906 Q562.4844,424.3906 561.8516,424.7188 Q561.2188,425.0469 560.7266,425.7969 Q560.2344,426.5469 560.2344,427.5781 L560.2344,428.6719 Q560.2344,429.9063 561.125,430.7266 Q562.0156,431.5469 563.6094,431.5469 Q564.5469,431.5469 565.2031,431.2969 Q565.5938,431.1406 566.0156,430.7031 Q566.2813,430.4375 566.4297,430.3594 Q566.5781,430.2813 566.7813,430.2813 Q567.1094,430.2813 567.3672,430.5391 Q567.625,430.7969 567.625,431.1406 Q567.625,431.4844 567.2813,431.8906 Q566.7813,432.4688 565.9844,432.7969 Q564.9063,433.25 563.6094,433.25 Q562.0938,433.25 560.8906,432.625 Q559.9063,432.125 559.2188,431.0547 Q558.5313,429.9844 558.5313,428.7031 L558.5313,427.5469 Q558.5313,426.2188 559.1484,425.0703 Q559.7656,423.9219 560.8594,423.3047 Q561.9531,422.6875 563.1875,422.6875 Q563.9219,422.6875 564.5703,422.8516 Q565.2188,423.0156 565.7656,423.375 Z "/><text fill="#000000" font-family="sans-serif" font-size="12" lengthAdjust="spacingAndGlyphs" textLength="49" x="577" y="432.4102">Dispatch</text><line style="stroke: #A80036; stroke-width: 1.5;" x1="549" x2="628" y1="443.5" y2="443.5"/><text fill="#000000" font-family="sans-serif" font-size="11" lengthAdjust="spacingAndGlyphs" textLength="14" x="554" y="458.9189">job</text><text fill="#000000" font-family="sans-serif" font-size="11" lengthAdjust="spacingAndGlyphs" textLength="51" x="554" y="472.7549">order_item</text><line style="stroke: #A80036; stroke-width: 1.5;" x1="549" x2="628" y1="479.1719" y2="479.1719"/><!--class Stock--><rect fill="#FEFECE" filter="url(#fci1qdv)" height="48" style="stroke: #A80036; stroke-width: 1.5;" width="62" x="1447.5" y="1094"/><ellipse cx="1462.5" cy="1110" fill="#ADD1B2" rx="11" ry="11" style="stroke: #A80036; stroke-width: 1.0;"/><path d="M1465.2656,1105.875 Q1465.4219,1105.6563 1465.6094,1105.5469 Q1465.7969,1105.4375 1466.0156,1105.4375 Q1466.3906,1105.4375 1466.625,1105.6953 Q1466.8594,1105.9531 1466.8594,1106.5625 L1466.8594,1108.0156 Q1466.8594,1108.625 1466.625,1108.8906 Q1466.3906,1109.1563 1466.0156,1109.1563 Q1465.6719,1109.1563 1465.4688,1108.9531 Q1465.2656,1108.7656 1465.1563,1108.25 Q1465.1094,1107.8906 1464.9219,1107.7031 Q1464.5938,1107.3281 1463.9844,1107.1094 Q1463.375,1106.8906 1462.75,1106.8906 Q1461.9844,1106.8906 1461.3516,1107.2188 Q1460.7188,1107.5469 1460.2266,1108.2969 Q1459.7344,1109.0469 1459.7344,1110.0781 L1459.7344,1111.1719 Q1459.7344,1112.4063 1460.625,1113.2266 Q1461.5156,1114.0469 1463.1094,1114.0469 Q1464.0469,1114.0469 1464.7031,1113.7969 Q1465.0938,1113.6406 1465.5156,1113.2031 Q1465.7813,1112.9375 1465.9297,1112.8594 Q1466.0781,1112.7813 1466.2813,1112.7813 Q1466.6094,1112.7813 1466.8672,1113.0391 Q1467.125,1113.2969 1467.125,1113.6406 Q1467.125,1113.9844 1466.7813,1114.3906 Q1466.2813,1114.9688 1465.4844,1115.2969 Q1464.4063,1115.75 1463.1094,1115.75 Q1461.5938,1115.75 1460.3906,1115.125 Q1459.4063,1114.625 1458.7188,1113.5547 Q1458.0313,1112.4844 1458.0313,1111.2031 L1458.0313,1110.0469 Q1458.0313,1108.7188 1458.6484,1107.5703 Q1459.2656,1106.4219 1460.3594,1105.8047 Q1461.4531,1105.1875 1462.6875,1105.1875 Q1463.4219,1105.1875 1464.0703,1105.3516 Q1464.7188,1105.5156 1465.2656,1105.875 Z "/><text fill="#000000" font-family="sans-serif" font-size="12" lengthAdjust="spacingAndGlyphs" textLength="30" x="1476.5" y="1114.9102">Stock</text><line style="stroke: #A80036; stroke-width: 1.5;" x1="1448.5" x2="1508.5" y1="1126" y2="1126"/><line style="stroke: #A80036; stroke-width: 1.5;" x1="1448.5" x2="1508.5" y1="1134" y2="1134"/><!--class Query--><rect fill="#FEFECE" filter="url(#fci1qdv)" height="48" style="stroke: #A80036; stroke-width: 1.5;" width="64" x="1209.5" y="648.5"/><ellipse cx="1224.5" cy="664.5" fill="#ADD1B2" rx="11" ry="11" style="stroke: #A80036; stroke-width: 1.0;"/><path d="M1227.2656,660.375 Q1227.4219,660.1563 1227.6094,660.0469 Q1227.7969,659.9375 1228.0156,659.9375 Q1228.3906,659.9375 1228.625,660.1953 Q1228.8594,660.4531 1228.8594,661.0625 L1228.8594,662.5156 Q1228.8594,663.125 1228.625,663.3906 Q1228.3906,663.6563 1228.0156,663.6563 Q1227.6719,663.6563 1227.4688,663.4531 Q1227.2656,663.2656 1227.1563,662.75 Q1227.1094,662.3906 1226.9219,662.2031 Q1226.5938,661.8281 1225.9844,661.6094 Q1225.375,661.3906 1224.75,661.3906 Q1223.9844,661.3906 1223.3516,661.7188 Q1222.7188,662.0469 1222.2266,662.7969 Q1221.7344,663.5469 1221.7344,664.5781 L1221.7344,665.6719 Q1221.7344,666.9063 1222.625,667.7266 Q1223.5156,668.5469 1225.1094,668.5469 Q1226.0469,668.5469 1226.7031,668.2969 Q1227.0938,668.1406 1227.5156,667.7031 Q1227.7813,667.4375 1227.9297,667.3594 Q1228.0781,667.2813 1228.2813,667.2813 Q1228.6094,667.2813 1228.8672,667.5391 Q1229.125,667.7969 1229.125,668.1406 Q1229.125,668.4844 1228.7813,668.8906 Q1228.2813,669.4688 1227.4844,669.7969 Q1226.4063,670.25 1225.1094,670.25 Q1223.5938,670.25 1222.3906,669.625 Q1221.4063,669.125 1220.7188,668.0547 Q1220.0313,666.9844 1220.0313,665.7031 L1220.0313,664.5469 Q1220.0313,663.2188 1220.6484,662.0703 Q1221.2656,660.9219 1222.3594,660.3047 Q1223.4531,659.6875 1224.6875,659.6875 Q1225.4219,659.6875 1226.0703,659.8516 Q1226.7188,660.0156 1227.2656,660.375 Z "/><text fill="#000000" font-family="sans-serif" font-size="12" lengthAdjust="spacingAndGlyphs" textLength="32" x="1238.5" y="669.4102">Query</text><line style="stroke: #A80036; stroke-width: 1.5;" x1="1210.5" x2="1272.5" y1="680.5" y2="680.5"/><line style="stroke: #A80036; stroke-width: 1.5;" x1="1210.5" x2="1272.5" y1="688.5" y2="688.5"/><!--class Batch--><rect fill="#FEFECE" filter="url(#fci1qdv)" height="103.3438" style="stroke: #A80036; stroke-width: 1.5;" width="65" x="292" y="189"/><ellipse cx="307.9" cy="205" fill="#ADD1B2" rx="11" ry="11" style="stroke: #A80036; stroke-width: 1.0;"/><path d="M310.6656,200.875 Q310.8219,200.6563 311.0094,200.5469 Q311.1969,200.4375 311.4156,200.4375 Q311.7906,200.4375 312.025,200.6953 Q312.2594,200.9531 312.2594,201.5625 L312.2594,203.0156 Q312.2594,203.625 312.025,203.8906 Q311.7906,204.1563 311.4156,204.1563 Q311.0719,204.1563 310.8688,203.9531 Q310.6656,203.7656 310.5563,203.25 Q310.5094,202.8906 310.3219,202.7031 Q309.9938,202.3281 309.3844,202.1094 Q308.775,201.8906 308.15,201.8906 Q307.3844,201.8906 306.7516,202.2188 Q306.1188,202.5469 305.6266,203.2969 Q305.1344,204.0469 305.1344,205.0781 L305.1344,206.1719 Q305.1344,207.4063 306.025,208.2266 Q306.9156,209.0469 308.5094,209.0469 Q309.4469,209.0469 310.1031,208.7969 Q310.4938,208.6406 310.9156,208.2031 Q311.1813,207.9375 311.3297,207.8594 Q311.4781,207.7813 311.6813,207.7813 Q312.0094,207.7813 312.2672,208.0391 Q312.525,208.2969 312.525,208.6406 Q312.525,208.9844 312.1813,209.3906 Q311.6813,209.9688 310.8844,210.2969 Q309.8063,210.75 308.5094,210.75 Q306.9938,210.75 305.7906,210.125 Q304.8063,209.625 304.1188,208.5547 Q303.4313,207.4844 303.4313,206.2031 L303.4313,205.0469 Q303.4313,203.7188 304.0484,202.5703 Q304.6656,201.4219 305.7594,200.8047 Q306.8531,200.1875 308.0875,200.1875 Q308.8219,200.1875 309.4703,200.3516 Q310.1188,200.5156 310.6656,200.875 Z "/><text fill="#000000" font-family="sans-serif" font-size="12" lengthAdjust="spacingAndGlyphs" textLength="31" x="322.1" y="209.9102">Batch</text><line style="stroke: #A80036; stroke-width: 1.5;" x1="293" x2="356" y1="221" y2="221"/><text fill="#000000" font-family="sans-serif" font-size="11" lengthAdjust="spacingAndGlyphs" textLength="53" x="298" y="236.4189">component</text><text fill="#000000" font-family="sans-serif" font-size="11" lengthAdjust="spacingAndGlyphs" textLength="14" x="298" y="250.2549">job</text><text fill="#000000" font-family="sans-serif" font-size="11" lengthAdjust="spacingAndGlyphs" textLength="26" x="298" y="264.0908">mode</text><text fill="#000000" font-family="sans-serif" font-size="11" lengthAdjust="spacingAndGlyphs" textLength="40" x="298" y="277.9268">process</text><line style="stroke: #A80036; stroke-width: 1.5;" x1="293" x2="356" y1="284.3438" y2="284.3438"/><!--class Article--><rect fill="#FEFECE" filter="url(#fci1qdv)" height="200.1953" style="stroke: #A80036; stroke-width: 1.5;" width="163" x="1245" y="816"/><ellipse cx="1305.75" cy="832" fill="#ADD1B2" rx="11" ry="11" style="stroke: #A80036; stroke-width: 1.0;"/><path d="M1308.5156,827.875 Q1308.6719,827.6563 1308.8594,827.5469 Q1309.0469,827.4375 1309.2656,827.4375 Q1309.6406,827.4375 1309.875,827.6953 Q1310.1094,827.9531 1310.1094,828.5625 L1310.1094,830.0156 Q1310.1094,830.625 1309.875,830.8906 Q1309.6406,831.1563 1309.2656,831.1563 Q1308.9219,831.1563 1308.7188,830.9531 Q1308.5156,830.7656 1308.4063,830.25 Q1308.3594,829.8906 1308.1719,829.7031 Q1307.8438,829.3281 1307.2344,829.1094 Q1306.625,828.8906 1306,828.8906 Q1305.2344,828.8906 1304.6016,829.2188 Q1303.9688,829.5469 1303.4766,830.2969 Q1302.9844,831.0469 1302.9844,832.0781 L1302.9844,833.1719 Q1302.9844,834.4063 1303.875,835.2266 Q1304.7656,836.0469 1306.3594,836.0469 Q1307.2969,836.0469 1307.9531,835.7969 Q1308.3438,835.6406 1308.7656,835.2031 Q1309.0313,834.9375 1309.1797,834.8594 Q1309.3281,834.7813 1309.5313,834.7813 Q1309.8594,834.7813 1310.1172,835.0391 Q1310.375,835.2969 1310.375,835.6406 Q1310.375,835.9844 1310.0313,836.3906 Q1309.5313,836.9688 1308.7344,837.2969 Q1307.6563,837.75 1306.3594,837.75 Q1304.8438,837.75 1303.6406,837.125 Q1302.6563,836.625 1301.9688,835.5547 Q1301.2813,834.4844 1301.2813,833.2031 L1301.2813,832.0469 Q1301.2813,830.7188 1301.8984,829.5703 Q1302.5156,828.4219 1303.6094,827.8047 Q1304.7031,827.1875 1305.9375,827.1875 Q1306.6719,827.1875 1307.3203,827.3516 Q1307.9688,827.5156 1308.5156,827.875 Z "/><text fill="#000000" font-family="sans-serif" font-size="12" lengthAdjust="spacingAndGlyphs" textLength="33" x="1326.25" y="836.9102">Article</text><line style="stroke: #A80036; stroke-width: 1.5;" x1="1246" x2="1407" y1="848" y2="848"/><text fill="#000000" font-family="sans-serif" font-size="11" lengthAdjust="spacingAndGlyphs" textLength="35" x="1251" y="863.4189">amount</text><text fill="#000000" font-family="sans-serif" font-size="11" lengthAdjust="spacingAndGlyphs" textLength="43" x="1251" y="877.2549">category</text><text fill="#000000" font-family="sans-serif" font-size="11" lengthAdjust="spacingAndGlyphs" textLength="45" x="1251" y="891.0908">database</text><text fill="#000000" font-family="sans-serif" font-size="11" lengthAdjust="spacingAndGlyphs" textLength="29" x="1251" y="904.9268">datum</text><text fill="#000000" font-family="sans-serif" font-size="11" lengthAdjust="spacingAndGlyphs" textLength="26" x="1251" y="918.7627">name</text><text fill="#000000" font-family="sans-serif" font-size="11" lengthAdjust="spacingAndGlyphs" textLength="36" x="1251" y="932.5986">number</text><text fill="#000000" font-family="sans-serif" font-size="11" lengthAdjust="spacingAndGlyphs" textLength="24" x="1251" y="946.4346">price</text><text fill="#000000" font-family="sans-serif" font-size="11" lengthAdjust="spacingAndGlyphs" textLength="38" x="1251" y="960.2705">quantity</text><line style="stroke: #A80036; stroke-width: 1.5;" x1="1246" x2="1407" y1="966.6875" y2="966.6875"/><text fill="#000000" font-family="sans-serif" font-size="11" lengthAdjust="spacingAndGlyphs" textLength="151" x="1251" y="982.1064">is available in quantity(quantity)</text><text fill="#000000" font-family="sans-serif" font-size="11" lengthAdjust="spacingAndGlyphs" textLength="131" x="1251" y="995.9424">is available on stock(stock)</text><text fill="#000000" font-family="sans-serif" font-size="11" lengthAdjust="spacingAndGlyphs" textLength="72" x="1251" y="1009.7783">is dispatched()</text><!--class Week--><rect fill="#FEFECE" filter="url(#fci1qdv)" height="61.8359" style="stroke: #A80036; stroke-width: 1.5;" width="65" x="392" y="209.5"/><ellipse cx="407.9" cy="225.5" fill="#ADD1B2" rx="11" ry="11" style="stroke: #A80036; stroke-width: 1.0;"/><path d="M410.6656,221.375 Q410.8219,221.1563 411.0094,221.0469 Q411.1969,220.9375 411.4156,220.9375 Q411.7906,220.9375 412.025,221.1953 Q412.2594,221.4531 412.2594,222.0625 L412.2594,223.5156 Q412.2594,224.125 412.025,224.3906 Q411.7906,224.6563 411.4156,224.6563 Q411.0719,224.6563 410.8688,224.4531 Q410.6656,224.2656 410.5563,223.75 Q410.5094,223.3906 410.3219,223.2031 Q409.9938,222.8281 409.3844,222.6094 Q408.775,222.3906 408.15,222.3906 Q407.3844,222.3906 406.7516,222.7188 Q406.1188,223.0469 405.6266,223.7969 Q405.1344,224.5469 405.1344,225.5781 L405.1344,226.6719 Q405.1344,227.9063 406.025,228.7266 Q406.9156,229.5469 408.5094,229.5469 Q409.4469,229.5469 410.1031,229.2969 Q410.4938,229.1406 410.9156,228.7031 Q411.1813,228.4375 411.3297,228.3594 Q411.4781,228.2813 411.6813,228.2813 Q412.0094,228.2813 412.2672,228.5391 Q412.525,228.7969 412.525,229.1406 Q412.525,229.4844 412.1813,229.8906 Q411.6813,230.4688 410.8844,230.7969 Q409.8063,231.25 408.5094,231.25 Q406.9938,231.25 405.7906,230.625 Q404.8063,230.125 404.1188,229.0547 Q403.4313,227.9844 403.4313,226.7031 L403.4313,225.5469 Q403.4313,224.2188 404.0484,223.0703 Q404.6656,221.9219 405.7594,221.3047 Q406.8531,220.6875 408.0875,220.6875 Q408.8219,220.6875 409.4703,220.8516 Q410.1188,221.0156 410.6656,221.375 Z "/><text fill="#000000" font-family="sans-serif" font-size="12" lengthAdjust="spacingAndGlyphs" textLength="31" x="422.1" y="230.4102">Week</text><line style="stroke: #A80036; stroke-width: 1.5;" x1="393" x2="456" y1="241.5" y2="241.5"/><line style="stroke: #A80036; stroke-width: 1.5;" x1="393" x2="456" y1="249.5" y2="249.5"/><text fill="#000000" font-family="sans-serif" font-size="11" lengthAdjust="spacingAndGlyphs" textLength="53" x="398" y="264.9189">Once are()</text><!--class Possibility--><rect fill="#FEFECE" filter="url(#fci1qdv)" height="75.6719" style="stroke: #A80036; stroke-width: 1.5;" width="105" x="1529" y="634.5"/><ellipse cx="1551.65" cy="650.5" fill="#ADD1B2" rx="11" ry="11" style="stroke: #A80036; stroke-width: 1.0;"/><path d="M1554.4156,646.375 Q1554.5719,646.1563 1554.7594,646.0469 Q1554.9469,645.9375 1555.1656,645.9375 Q1555.5406,645.9375 1555.775,646.1953 Q1556.0094,646.4531 1556.0094,647.0625 L1556.0094,648.5156 Q1556.0094,649.125 1555.775,649.3906 Q1555.5406,649.6563 1555.1656,649.6563 Q1554.8219,649.6563 1554.6188,649.4531 Q1554.4156,649.2656 1554.3063,648.75 Q1554.2594,648.3906 1554.0719,648.2031 Q1553.7438,647.8281 1553.1344,647.6094 Q1552.525,647.3906 1551.9,647.3906 Q1551.1344,647.3906 1550.5016,647.7188 Q1549.8688,648.0469 1549.3766,648.7969 Q1548.8844,649.5469 1548.8844,650.5781 L1548.8844,651.6719 Q1548.8844,652.9063 1549.775,653.7266 Q1550.6656,654.5469 1552.2594,654.5469 Q1553.1969,654.5469 1553.8531,654.2969 Q1554.2438,654.1406 1554.6656,653.7031 Q1554.9313,653.4375 1555.0797,653.3594 Q1555.2281,653.2813 1555.4313,653.2813 Q1555.7594,653.2813 1556.0172,653.5391 Q1556.275,653.7969 1556.275,654.1406 Q1556.275,654.4844 1555.9313,654.8906 Q1555.4313,655.4688 1554.6344,655.7969 Q1553.5563,656.25 1552.2594,656.25 Q1550.7438,656.25 1549.5406,655.625 Q1548.5563,655.125 1547.8688,654.0547 Q1547.1813,652.9844 1547.1813,651.7031 L1547.1813,650.5469 Q1547.1813,649.2188 1547.7984,648.0703 Q1548.4156,646.9219 1549.5094,646.3047 Q1550.6031,645.6875 1551.8375,645.6875 Q1552.5719,645.6875 1553.2203,645.8516 Q1553.8688,646.0156 1554.4156,646.375 Z "/><text fill="#000000" font-family="sans-serif" font-size="12" lengthAdjust="spacingAndGlyphs" textLength="56" x="1567.35" y="655.4102">Possibility</text><line style="stroke: #A80036; stroke-width: 1.5;" x1="1530" x2="1633" y1="666.5" y2="666.5"/><line style="stroke: #A80036; stroke-width: 1.5;" x1="1530" x2="1633" y1="674.5" y2="674.5"/><text fill="#000000" font-family="sans-serif" font-size="11" lengthAdjust="spacingAndGlyphs" textLength="93" x="1535" y="689.9189">scan article(article)</text><text fill="#000000" font-family="sans-serif" font-size="11" lengthAdjust="spacingAndGlyphs" textLength="87" x="1535" y="703.7549">scan stock(stock)</text><!--class Dispatch_office--><rect fill="#FEFECE" filter="url(#fci1qdv)" height="48" style="stroke: #A80036; stroke-width: 1.5;" width="117" x="137" y="892"/><ellipse cx="152" cy="908" fill="#ADD1B2" rx="11" ry="11" style="stroke: #A80036; stroke-width: 1.0;"/><path d="M154.7656,903.875 Q154.9219,903.6563 155.1094,903.5469 Q155.2969,903.4375 155.5156,903.4375 Q155.8906,903.4375 156.125,903.6953 Q156.3594,903.9531 156.3594,904.5625 L156.3594,906.0156 Q156.3594,906.625 156.125,906.8906 Q155.8906,907.1563 155.5156,907.1563 Q155.1719,907.1563 154.9688,906.9531 Q154.7656,906.7656 154.6563,906.25 Q154.6094,905.8906 154.4219,905.7031 Q154.0938,905.3281 153.4844,905.1094 Q152.875,904.8906 152.25,904.8906 Q151.4844,904.8906 150.8516,905.2188 Q150.2188,905.5469 149.7266,906.2969 Q149.2344,907.0469 149.2344,908.0781 L149.2344,909.1719 Q149.2344,910.4063 150.125,911.2266 Q151.0156,912.0469 152.6094,912.0469 Q153.5469,912.0469 154.2031,911.7969 Q154.5938,911.6406 155.0156,911.2031 Q155.2813,910.9375 155.4297,910.8594 Q155.5781,910.7813 155.7813,910.7813 Q156.1094,910.7813 156.3672,911.0391 Q156.625,911.2969 156.625,911.6406 Q156.625,911.9844 156.2813,912.3906 Q155.7813,912.9688 154.9844,913.2969 Q153.9063,913.75 152.6094,913.75 Q151.0938,913.75 149.8906,913.125 Q148.9063,912.625 148.2188,911.5547 Q147.5313,910.4844 147.5313,909.2031 L147.5313,908.0469 Q147.5313,906.7188 148.1484,905.5703 Q148.7656,904.4219 149.8594,903.8047 Q150.9531,903.1875 152.1875,903.1875 Q152.9219,903.1875 153.5703,903.3516 Q154.2188,903.5156 154.7656,903.875 Z "/><text fill="#000000" font-family="sans-serif" font-size="12" lengthAdjust="spacingAndGlyphs" textLength="85" x="166" y="912.9102">Dispatch_office</text><line style="stroke: #A80036; stroke-width: 1.5;" x1="138" x2="253" y1="924" y2="924"/><line style="stroke: #A80036; stroke-width: 1.5;" x1="138" x2="253" y1="932" y2="932"/><!--class Invoice--><rect fill="#FEFECE" filter="url(#fci1qdv)" height="75.6719" style="stroke: #A80036; stroke-width: 1.5;" width="146" x="523.5" y="202.5"/><ellipse cx="573.25" cy="218.5" fill="#ADD1B2" rx="11" ry="11" style="stroke: #A80036; stroke-width: 1.0;"/><path d="M576.0156,214.375 Q576.1719,214.1563 576.3594,214.0469 Q576.5469,213.9375 576.7656,213.9375 Q577.1406,213.9375 577.375,214.1953 Q577.6094,214.4531 577.6094,215.0625 L577.6094,216.5156 Q577.6094,217.125 577.375,217.3906 Q577.1406,217.6563 576.7656,217.6563 Q576.4219,217.6563 576.2188,217.4531 Q576.0156,217.2656 575.9063,216.75 Q575.8594,216.3906 575.6719,216.2031 Q575.3438,215.8281 574.7344,215.6094 Q574.125,215.3906 573.5,215.3906 Q572.7344,215.3906 572.1016,215.7188 Q571.4688,216.0469 570.9766,216.7969 Q570.4844,217.5469 570.4844,218.5781 L570.4844,219.6719 Q570.4844,220.9063 571.375,221.7266 Q572.2656,222.5469 573.8594,222.5469 Q574.7969,222.5469 575.4531,222.2969 Q575.8438,222.1406 576.2656,221.7031 Q576.5313,221.4375 576.6797,221.3594 Q576.8281,221.2813 577.0313,221.2813 Q577.3594,221.2813 577.6172,221.5391 Q577.875,221.7969 577.875,222.1406 Q577.875,222.4844 577.5313,222.8906 Q577.0313,223.4688 576.2344,223.7969 Q575.1563,224.25 573.8594,224.25 Q572.3438,224.25 571.1406,223.625 Q570.1563,223.125 569.4688,222.0547 Q568.7813,220.9844 568.7813,219.7031 L568.7813,218.5469 Q568.7813,217.2188 569.3984,216.0703 Q570.0156,214.9219 571.1094,214.3047 Q572.2031,213.6875 573.4375,213.6875 Q574.1719,213.6875 574.8203,213.8516 Q575.4688,214.0156 576.0156,214.375 Z "/><text fill="#000000" font-family="sans-serif" font-size="12" lengthAdjust="spacingAndGlyphs" textLength="38" x="593.75" y="223.4102">Invoice</text><line style="stroke: #A80036; stroke-width: 1.5;" x1="524.5" x2="668.5" y1="234.5" y2="234.5"/><line style="stroke: #A80036; stroke-width: 1.5;" x1="524.5" x2="668.5" y1="242.5" y2="242.5"/><text fill="#000000" font-family="sans-serif" font-size="11" lengthAdjust="spacingAndGlyphs" textLength="83" x="529.5" y="257.9189">include item(item)</text><text fill="#000000" font-family="sans-serif" font-size="11" lengthAdjust="spacingAndGlyphs" textLength="134" x="529.5" y="271.7549">sent to customer(customer)</text><!--class Time--><rect fill="#FEFECE" filter="url(#fci1qdv)" height="48" style="stroke: #A80036; stroke-width: 1.5;" width="60" x="1148.5" y="892"/><ellipse cx="1163.5" cy="908" fill="#ADD1B2" rx="11" ry="11" style="stroke: #A80036; stroke-width: 1.0;"/><path d="M1166.2656,903.875 Q1166.4219,903.6563 1166.6094,903.5469 Q1166.7969,903.4375 1167.0156,903.4375 Q1167.3906,903.4375 1167.625,903.6953 Q1167.8594,903.9531 1167.8594,904.5625 L1167.8594,906.0156 Q1167.8594,906.625 1167.625,906.8906 Q1167.3906,907.1563 1167.0156,907.1563 Q1166.6719,907.1563 1166.4688,906.9531 Q1166.2656,906.7656 1166.1563,906.25 Q1166.1094,905.8906 1165.9219,905.7031 Q1165.5938,905.3281 1164.9844,905.1094 Q1164.375,904.8906 1163.75,904.8906 Q1162.9844,904.8906 1162.3516,905.2188 Q1161.7188,905.5469 1161.2266,906.2969 Q1160.7344,907.0469 1160.7344,908.0781 L1160.7344,909.1719 Q1160.7344,910.4063 1161.625,911.2266 Q1162.5156,912.0469 1164.1094,912.0469 Q1165.0469,912.0469 1165.7031,911.7969 Q1166.0938,911.6406 1166.5156,911.2031 Q1166.7813,910.9375 1166.9297,910.8594 Q1167.0781,910.7813 1167.2813,910.7813 Q1167.6094,910.7813 1167.8672,911.0391 Q1168.125,911.2969 1168.125,911.6406 Q1168.125,911.9844 1167.7813,912.3906 Q1167.2813,912.9688 1166.4844,913.2969 Q1165.4063,913.75 1164.1094,913.75 Q1162.5938,913.75 1161.3906,913.125 Q1160.4063,912.625 1159.7188,911.5547 Q1159.0313,910.4844 1159.0313,909.2031 L1159.0313,908.0469 Q1159.0313,906.7188 1159.6484,905.5703 Q1160.2656,904.4219 1161.3594,903.8047 Q1162.4531,903.1875 1163.6875,903.1875 Q1164.4219,903.1875 1165.0703,903.3516 Q1165.7188,903.5156 1166.2656,903.875 Z "/><text fill="#000000" font-family="sans-serif" font-size="12" lengthAdjust="spacingAndGlyphs" textLength="28" x="1177.5" y="912.9102">Time</text><line style="stroke: #A80036; stroke-width: 1.5;" x1="1149.5" x2="1207.5" y1="924" y2="924"/><line style="stroke: #A80036; stroke-width: 1.5;" x1="1149.5" x2="1207.5" y1="932" y2="932"/><!--class Customer--><rect fill="#FEFECE" filter="url(#fci1qdv)" height="158.6875" style="stroke: #A80036; stroke-width: 1.5;" width="244" x="777.5" y="370"/><ellipse cx="867.75" cy="386" fill="#ADD1B2" rx="11" ry="11" style="stroke: #A80036; stroke-width: 1.0;"/><path d="M870.5156,381.875 Q870.6719,381.6563 870.8594,381.5469 Q871.0469,381.4375 871.2656,381.4375 Q871.6406,381.4375 871.875,381.6953 Q872.1094,381.9531 872.1094,382.5625 L872.1094,384.0156 Q872.1094,384.625 871.875,384.8906 Q871.6406,385.1563 871.2656,385.1563 Q870.9219,385.1563 870.7188,384.9531 Q870.5156,384.7656 870.4063,384.25 Q870.3594,383.8906 870.1719,383.7031 Q869.8438,383.3281 869.2344,383.1094 Q868.625,382.8906 868,382.8906 Q867.2344,382.8906 866.6016,383.2188 Q865.9688,383.5469 865.4766,384.2969 Q864.9844,385.0469 864.9844,386.0781 L864.9844,387.1719 Q864.9844,388.4063 865.875,389.2266 Q866.7656,390.0469 868.3594,390.0469 Q869.2969,390.0469 869.9531,389.7969 Q870.3438,389.6406 870.7656,389.2031 Q871.0313,388.9375 871.1797,388.8594 Q871.3281,388.7813 871.5313,388.7813 Q871.8594,388.7813 872.1172,389.0391 Q872.375,389.2969 872.375,389.6406 Q872.375,389.9844 872.0313,390.3906 Q871.5313,390.9688 870.7344,391.2969 Q869.6563,391.75 868.3594,391.75 Q866.8438,391.75 865.6406,391.125 Q864.6563,390.625 863.9688,389.5547 Q863.2813,388.4844 863.2813,387.2031 L863.2813,386.0469 Q863.2813,384.7188 863.8984,383.5703 Q864.5156,382.4219 865.6094,381.8047 Q866.7031,381.1875 867.9375,381.1875 Q868.6719,381.1875 869.3203,381.3516 Q869.9688,381.5156 870.5156,381.875 Z "/><text fill="#000000" font-family="sans-serif" font-size="12" lengthAdjust="spacingAndGlyphs" textLength="55" x="888.25" y="390.9102">Customer</text><line style="stroke: #A80036; stroke-width: 1.5;" x1="778.5" x2="1020.5" y1="402" y2="402"/><text fill="#000000" font-family="sans-serif" font-size="11" lengthAdjust="spacingAndGlyphs" textLength="75" x="783.5" y="417.4189">address_datum</text><text fill="#000000" font-family="sans-serif" font-size="11" lengthAdjust="spacingAndGlyphs" textLength="45" x="783.5" y="431.2549">credibility</text><text fill="#000000" font-family="sans-serif" font-size="11" lengthAdjust="spacingAndGlyphs" textLength="87" x="783.5" y="445.0908">customer_number</text><text fill="#000000" font-family="sans-serif" font-size="11" lengthAdjust="spacingAndGlyphs" textLength="45" x="783.5" y="458.9268">database</text><text fill="#000000" font-family="sans-serif" font-size="11" lengthAdjust="spacingAndGlyphs" textLength="29" x="783.5" y="472.7627">datum</text><text fill="#000000" font-family="sans-serif" font-size="11" lengthAdjust="spacingAndGlyphs" textLength="36" x="783.5" y="486.5986">number</text><line style="stroke: #A80036; stroke-width: 1.5;" x1="778.5" x2="1020.5" y1="493.0156" y2="493.0156"/><text fill="#000000" font-family="sans-serif" font-size="11" lengthAdjust="spacingAndGlyphs" textLength="210" x="783.5" y="508.4346">enter customer_number(customer_number)</text><text fill="#000000" font-family="sans-serif" font-size="11" lengthAdjust="spacingAndGlyphs" textLength="232" x="783.5" y="522.2705">first enter customer_number(customer_number)</text><path d="M826.38,539.289 C807.824,561.821 788.235,585.607 770.867,606.698 " fill="none" style="stroke: #A80036; stroke-width: 1.0;"/><polygon fill="#FFFFFF" points="834.821,529.039,827.9189,531.1274,827.1921,538.3018,834.0942,536.2134,834.821,529.039" style="stroke: #A80036; stroke-width: 1.0;"/><path d="M709.797,501.271 C711.218,532.666 713.055,573.257 714.578,606.928 " fill="none" style="stroke: #A80036; stroke-width: 1.0;"/><polygon fill="#FFFFFF" points="709.196,487.99,705.4711,494.1645,709.738,499.9778,713.4629,493.8032,709.196,487.99" style="stroke: #A80036; stroke-width: 1.0;"/><path d="M617.155,499.591 C635.61,531.208 659.802,572.653 679.809,606.928 " fill="none" style="stroke: #A80036; stroke-width: 1.0;"/><polygon fill="#FFFFFF" points="610.383,487.99,609.9536,495.1883,616.433,498.3533,616.8624,491.155,610.383,487.99" style="stroke: #A80036; stroke-width: 1.0;"/><path d="M910.211,724.214 C872.874,745.919 827.151,769.917 783.5,786 C722.973,808.301 701.661,792.731 641.5,816 C613.433,826.856 584.574,842.037 558.826,857.257 " fill="none" style="stroke: #A80036; stroke-width: 1.0;"/><polygon fill="#FFFFFF" points="921.518,717.563,914.3183,717.1573,911.1747,723.6471,918.3744,724.0528,921.518,717.563" style="stroke: #A80036; stroke-width: 1.0;"/><path d="M642.427,747.501 C606.687,782.73 564.578,824.237 531.22,857.119 " fill="none" style="stroke: #A80036; stroke-width: 1.0;"/><polygon fill="#FFFFFF" points="651.844,738.218,644.7629,739.5811,643.2976,746.6417,650.3787,745.2787,651.844,738.218" style="stroke: #A80036; stroke-width: 1.0;"/><path d="M576.053,500.34 C554.388,587.096 509.867,765.369 486.904,857.323 " fill="none" style="stroke: #A80036; stroke-width: 1.0;"/><polygon fill="#FFFFFF" points="579.203,487.727,573.8684,492.579,576.2954,499.3694,581.63,494.5174,579.203,487.727" style="stroke: #A80036; stroke-width: 1.0;"/><path d="M248.008,719.278 C292.928,758.442 357.82,815.017 406.294,857.279 " fill="none" style="stroke: #A80036; stroke-width: 1.0;"/><polygon fill="#FFFFFF" points="238.174,710.705,240.0679,717.663,247.219,718.5909,245.3251,711.6329,238.174,710.705" style="stroke: #A80036; stroke-width: 1.0;"/><path d="M395.386,723.01 C411.006,761.9 432.791,816.137 449.223,857.048 " fill="none" style="stroke: #A80036; stroke-width: 1.0;"/><polygon fill="#FFFFFF" points="390.444,710.705,388.9681,717.7634,394.9159,721.8406,396.3918,714.7822,390.444,710.705" style="stroke: #A80036; stroke-width: 1.0;"/><path d="M1032.16,536.222 C1096.7,577.93 1168.93,624.604 1209.44,650.78 " fill="none" style="stroke: #A80036; stroke-width: 1.0;"/><polygon fill="#FFFFFF" points="1021.04,529.039,1023.9078,535.6553,1031.1181,535.5529,1028.2504,528.9366,1021.04,529.039" style="stroke: #A80036; stroke-width: 1.0;"/><path d="M1269.86,707.207 C1282.79,724.361 1297.07,746.166 1305.5,768 C1311.31,783.03 1315.53,799.483 1318.59,815.769 " fill="none" style="stroke: #A80036; stroke-width: 1.0;"/><polygon fill="#FFFFFF" points="1261.63,696.653,1262.1634,703.8443,1269.0068,706.1178,1268.4733,698.9265,1261.63,696.653" style="stroke: #A80036; stroke-width: 1.0;"/><path d="M847.266,736.42 C849.015,736.966 850.76,737.493 852.5,738 C958.246,768.812 991.914,740.234 1098.5,768 C1118.95,773.326 1122.78,778.407 1142.5,786 C1179.1,800.096 1192.29,795.127 1225.5,816 C1232.05,820.116 1238.51,824.717 1244.82,829.623 " fill="none" style="stroke: #A80036; stroke-width: 1.0;"/><polygon fill="#FFFFFF" points="834.794,732.244,839.2137,737.9419,846.1732,736.0538,841.7535,730.3558,834.794,732.244" style="stroke: #A80036; stroke-width: 1.0;"/><path d="M1542.22,710.705 C1506.59,744.444 1452.94,795.251 1408.06,837.756 " fill="none" style="stroke: #A80036; stroke-width: 1.0;"/><text fill="#000000" font-family="sans-serif" font-size="13" lengthAdjust="spacingAndGlyphs" textLength="28" x="1478.5" y="782.4951">scan</text><path d="M1577.34,710.571 C1569.65,774.035 1551.07,907.184 1519.5,1016 C1511.54,1043.4443 1498.7,1073.6524 1489.52,1093.8156 " fill="none" style="stroke: #A80036; stroke-width: 1.0;"/><text fill="#000000" font-family="sans-serif" font-size="13" lengthAdjust="spacingAndGlyphs" textLength="28" x="1562.5" y="921.4951">scan</text><path d="M1343.13,1016.046 C1349.33,1033.34 1357.83,1050.1869 1369.5,1064 C1389.6,1087.7908 1422.89,1101.7876 1447.4,1109.3632 " fill="none" style="stroke: #A80036; stroke-width: 1.0;"/><text fill="#000000" font-family="sans-serif" font-size="13" lengthAdjust="spacingAndGlyphs" textLength="81" x="1370.5" y="1060.4951">is available on</text><path d="M195.5,710.705 C195.5,761.248 195.5,850.093 195.5,891.952 " fill="none" style="stroke: #A80036; stroke-width: 1.0;"/><text fill="#000000" font-family="sans-serif" font-size="13" lengthAdjust="spacingAndGlyphs" textLength="25" x="196.5" y="782.4951">sent</text><path d="M428.625,974.688 C413.332,1001.979 402.818,1034.891 415.5,1064 C420.519,1075.5209 429.414,1085.6657 438.707,1093.9138 " fill="none" style="stroke: #A80036; stroke-width: 1.0;"/><text fill="#000000" font-family="sans-serif" font-size="13" lengthAdjust="spacingAndGlyphs" textLength="66" x="416.5" y="1060.4951">is sent with</text><path d="M484.776,974.712 C488.917,1001.863 491.573,1034.652 487.5,1064 C486.12,1073.9456 483.348,1084.6488 480.559,1093.815 " fill="none" style="stroke: #A80036; stroke-width: 1.0;"/><text fill="#000000" font-family="sans-serif" font-size="13" lengthAdjust="spacingAndGlyphs" textLength="117" x="490.5" y="1060.4951">is sent together with</text><path d="M573.025,278.516 C558.377,303.416 540.471,337.513 530.5,370 C477.804,541.695 471.284,756.479 471.495,857.476 " fill="none" style="stroke: #A80036; stroke-width: 1.0;"/><text fill="#000000" font-family="sans-serif" font-size="13" lengthAdjust="spacingAndGlyphs" textLength="41" x="491.5" y="573.4951">include</text><path d="M650.67,278.507 C687.779,303.859 738.397,338.44 784.294,369.795 " fill="none" style="stroke: #A80036; stroke-width: 1.0;"/><text fill="#000000" font-family="sans-serif" font-size="13" lengthAdjust="spacingAndGlyphs" textLength="40" x="740.5" y="336.4951">sent to</text><path d="M596.5,90.86 C596.5,121.69 596.5,169.443 596.5,202.467 " fill="none" style="stroke: #A80036; stroke-width: 1.0;"/><text fill="#000000" font-family="sans-serif" font-size="13" lengthAdjust="spacingAndGlyphs" textLength="65" x="597.5" y="155.4951">For Billing i</text><path d="M1065.57,717.731 C1085.05,731.896 1104.69,748.921 1119.5,768 C1149.09,806.123 1165.84,861.062 1173.45,891.844 " fill="none" style="stroke: #A80036; stroke-width: 1.0;"/><text fill="#000000" font-family="sans-serif" font-size="13" lengthAdjust="spacingAndGlyphs" textLength="124" x="1133.5" y="782.4951">is sent out supplier in</text><path d="M987.402,717.514 C983.791,768.804 977.961,851.634 975.137,891.748 " fill="none" style="stroke: #A80036; stroke-width: 1.0;"/><text fill="#000000" font-family="sans-serif" font-size="13" lengthAdjust="spacingAndGlyphs" textLength="125" x="985.5" y="782.4951">is sent out supplier at</text><path d="M1395.26,724.126 C1385.7,750.682 1373.63,784.163 1362.29,815.64 " fill="none" style="stroke: #A80036; stroke-width: 1.0;"/><text fill="#000000" font-family="sans-serif" font-size="13" lengthAdjust="spacingAndGlyphs" textLength="43" x="1379.5" y="782.4951">monitor</text><path d="M1423.72,724.416 C1426.41,738.506 1429.2,753.823 1431.5,768 C1451.35,890.201 1469.21,1037.447 1475.8,1093.6549 " fill="none" style="stroke: #A80036; stroke-width: 1.0;"/><text fill="#000000" font-family="sans-serif" font-size="13" lengthAdjust="spacingAndGlyphs" textLength="43" x="1467.5" y="921.4951">monitor</text><path d="M948.5,717.713 C935.695,732.826 922.401,750.382 912.5,768 C891.193,805.914 876.515,854.281 868.555,884.958 " fill="none" style="stroke: #A80036; stroke-width: 1.0;"/><text fill="#000000" font-family="sans-serif" font-size="13" lengthAdjust="spacingAndGlyphs" textLength="61" x="913.5" y="782.4951">is sent out</text><path d="M718.84,738.218 C719.893,789.075 721.299,856.971 722.023,891.974 " fill="none" style="stroke: #A80036; stroke-width: 1.0;"/><text fill="#000000" font-family="sans-serif" font-size="13" lengthAdjust="spacingAndGlyphs" textLength="60" x="721.5" y="782.4951">remains in</text><path d="M212.749,487.99 C248.9,528.752 306.329,593.507 342.416,634.196 " fill="none" style="stroke: #A80036; stroke-width: 1.0;"/><text fill="#000000" font-family="sans-serif" font-size="13" lengthAdjust="spacingAndGlyphs" textLength="77" x="290.5" y="573.4951">removed from</text><path d="M154.903,487.99 C124.765,533.924 74.6368,610.326 49.6402,648.424 " fill="none" style="stroke: #A80036; stroke-width: 1.0;"/><text fill="#000000" font-family="sans-serif" font-size="13" lengthAdjust="spacingAndGlyphs" textLength="77" x="108.5" y="573.4951">removed from</text></g></svg>